<?xml version="1.0" encoding="us-ascii" standalone="no"?><svg xmlns="http://www.w3.org/2000/svg" xmlns:xlink="http://www.w3.org/1999/xlink" contentStyleType="text/css" height="258px" preserveAspectRatio="none" style="width:461px;height:258px;background:#FFFFFF;" version="1.1" viewBox="0 0 461 258" width="461px" zoomAndPan="magnify"><defs/><g><!--cluster cloud--><g id="cluster_cloud"><path d="M30.2323,136.4944 C35.1155,129.0162 40.8883,128.9676 45.5759,136.6917 C51.1474,128.8221 56.7947,128.8525 62.583,136.4533 C66.1717,128.6037 70.4205,128.1504 76.2344,134.2805 C82.0092,127.1797 87.0183,127.0343 92.4094,134.7007 C95.8126,126.7191 100.706,125.65 106.9149,131.8262 C111.4502,123.4647 119.2494,122.1145 124.3769,131.2348 C129.3587,123.4272 135.0329,123.8306 139.4289,131.7939 C143.3463,125.1819 150.4891,125.3778 154.1182,132.1113 C157.7546,125.2669 164.0289,125.0783 168.1355,131.619 C174.5732,125.2275 179.4257,127.1586 183.1415,134.5767 C188.3114,127.5647 194.8482,126.3589 199.1753,135.4176 C204.3402,129.2825 209.2915,127.9086 213.9587,135.9371 C220.3667,126.671 226.5803,127.303 231.7887,137.0614 C240.3022,128.8652 248.3611,133.1729 251.4233,143 C252.2392,142.1265 253.148,142.1609 253.5419,143.4193 C265.4641,149.334 264.5527,157.8046 254.4844,164.6935 C265.2511,170.0394 265.9342,177.8925 257.0223,185.6245 C265.1294,193.9254 265.1241,202.0958 253.1014,206.6412 C262.7175,218.9769 258.449,227.7548 244.4233,232 C245.2391,232.1905 245.5987,232.6881 245.0069,233.4465 C240.9163,240.0397 236.6326,240.3001 231.4668,234.634 C227.7804,242.1689 219.9117,242.9091 214.8026,236.3116 C210.1372,243.6056 204.6407,245.4712 198.7668,237.5885 C194.6963,246.4499 189.6957,245.5941 183.6409,239.6102 C180.7201,248.2933 174.2319,248.4738 168.9125,241.9303 C164.8729,249.1123 158.485,251.2435 152.9985,243.4701 C148.069,249.8071 143.7545,249.5987 139.1858,243.0825 C133.47,250.232 127.9934,247.7386 124.5795,240.7109 C118.6765,248.9213 111.5499,249.1334 107.0757,239.3231 C102.194,245.8149 96.8582,247.2324 91.4782,239.8847 C85.2903,246.6926 79.839,245.3661 76.3967,237.1319 C71.5953,243.64 64.8518,241.6614 62.1909,234.8491 C57.9408,244.2606 49.9867,243.3177 44.9119,235.685 C34.7658,242.1873 23.0005,238.6375 22.4233,225 C24.267,224.7004 24.9093,225.6266 24.6253,227.3342 C15.6208,222.2337 15.4351,213.2686 23.8768,207.5094 C12.9546,202.9261 13.828,193.3212 21.8686,186.8911 C12.3599,179.2095 11.6239,170.7643 23.9849,165.2183 C11,154.7813 12.9841,140.9604 29.4233,136 C29.8733,135.7862 30.2707,135.9091 30.2323,136.4944 " fill="#FFFFFF" style="stroke:#000000;stroke-width:1.0;"/><text fill="#000000" font-family="Verdana" font-size="14" font-weight="bold" lengthAdjust="spacing" textLength="44" x="114.9233" y="153.9951">cloud</text></g><!--entity actix_mysql_database--><g id="elem_actix_mysql_database"><path d="M57.9233,181 C57.9233,171 146.4233,171 146.4233,171 C146.4233,171 234.9233,171 234.9233,181 L234.9233,206.2969 C234.9233,216.2969 146.4233,216.2969 146.4233,216.2969 C146.4233,216.2969 57.9233,216.2969 57.9233,206.2969 L57.9233,181 " fill="#FFFFFF" style="stroke:#000000;stroke-width:1.0;"/><path d="M57.9233,181 C57.9233,191 146.4233,191 146.4233,191 C146.4233,191 234.9233,191 234.9233,181 " fill="none" style="stroke:#000000;stroke-width:1.0;"/><text fill="#000000" font-family="Verdana" font-size="14" lengthAdjust="spacing" textLength="157" x="67.9233" y="207.9951">actix_mysql_database</text></g><!--entity actix_front_end--><g id="elem_actix_front_end"><polygon fill="#FFFFFF" points="33.9233,21,43.9233,11,186.9233,11,186.9233,47.2969,176.9233,57.2969,33.9233,57.2969,33.9233,21" style="stroke:#000000;stroke-width:1.0;"/><line style="stroke:#000000;stroke-width:1.0;" x1="176.9233" x2="186.9233" y1="21" y2="11"/><line style="stroke:#000000;stroke-width:1.0;" x1="33.9233" x2="176.9233" y1="21" y2="21"/><line style="stroke:#000000;stroke-width:1.0;" x1="176.9233" x2="176.9233" y1="21" y2="57.2969"/><text fill="#000000" font-family="Verdana" font-size="14" lengthAdjust="spacing" textLength="113" x="48.9233" y="43.9951">actix_front_end</text></g><!--entity yew_back_end--><g id="elem_yew_back_end"><polygon fill="#FFFFFF" points="287.4233,21,297.4233,11,431.4233,11,431.4233,47.2969,421.4233,57.2969,287.4233,57.2969,287.4233,21" style="stroke:#000000;stroke-width:1.0;"/><line style="stroke:#000000;stroke-width:1.0;" x1="421.4233" x2="431.4233" y1="21" y2="11"/><line style="stroke:#000000;stroke-width:1.0;" x1="287.4233" x2="421.4233" y1="21" y2="21"/><line style="stroke:#000000;stroke-width:1.0;" x1="421.4233" x2="421.4233" y1="21" y2="57.2969"/><text fill="#000000" font-family="Verdana" font-size="14" lengthAdjust="spacing" textLength="104" x="302.4233" y="43.9951">yew_back_end</text></g><!--entity common_proxy--><g id="elem_common_proxy"><polygon fill="#FFFFFF" points="283.9233,180.5,293.9233,170.5,434.9233,170.5,434.9233,206.7969,424.9233,216.7969,283.9233,216.7969,283.9233,180.5" style="stroke:#000000;stroke-width:1.0;"/><line style="stroke:#000000;stroke-width:1.0;" x1="424.9233" x2="434.9233" y1="180.5" y2="170.5"/><line style="stroke:#000000;stroke-width:1.0;" x1="283.9233" x2="424.9233" y1="180.5" y2="180.5"/><line style="stroke:#000000;stroke-width:1.0;" x1="424.9233" x2="424.9233" y1="180.5" y2="216.7969"/><text fill="#000000" font-family="Verdana" font-size="14" lengthAdjust="spacing" textLength="111" x="298.9233" y="203.4951">common_proxy</text></g><!--link actix_front_end to cloud--><g id="link_actix_front_end_cloud"><path d="M84.9208,57.238 C70.1203,71.482 52.3073,91.156 41.4233,112 C39.3629,115.946 37.5229,120.1168 35.8801,124.4 C35.4694,125.4708 35.071,126.5486 34.6846,127.6317 " fill="none" id="actix_front_end-cloud" style="stroke:#000000;stroke-width:2.0;"/><text fill="#000000" font-family="Verdana" font-size="13" lengthAdjust="spacing" textLength="72" x="58.4233" y="100.0669">Diesel ORM</text></g><!--link actix_front_end to common_proxy--><g id="link_actix_front_end_common_proxy"><path d="M159.8625,59.8058 C188.1335,74.4308 219.9613,91.826 251.4233,112 C279.7713,130.178 305.6842,149.6656 327.0582,166.485 " fill="none" id="actix_front_end-common_proxy" style="stroke:#000000;stroke-width:2.0;"/><polygon fill="#000000" points="154.5333,57.049,160.6892,64.737,158.9743,59.3464,164.365,57.6315,154.5333,57.049" style="stroke:#000000;stroke-width:2.0;"/><polygon fill="#000000" points="331.7733,170.1954,327.1742,161.4863,327.844,167.1034,322.227,167.7732,331.7733,170.1954" style="stroke:#000000;stroke-width:2.0;"/><text fill="#000000" font-family="Verdana" font-size="13" lengthAdjust="spacing" textLength="93" x="238.4233" y="100.0669">HTTP requests</text></g><!--link yew_back_end to common_proxy--><g id="link_yew_back_end_common_proxy"><path d="M359.4233,63.232 C359.4233,93.249 359.4233,134.422 359.4233,164.3812 " fill="none" id="yew_back_end-common_proxy" style="stroke:#000000;stroke-width:2.0;"/><polygon fill="#000000" points="359.4233,57.232,355.4233,66.232,359.4233,62.232,363.4233,66.232,359.4233,57.232" style="stroke:#000000;stroke-width:2.0;"/><polygon fill="#000000" points="359.4233,170.3812,363.4233,161.3812,359.4233,165.3812,355.4233,161.3812,359.4233,170.3812" style="stroke:#000000;stroke-width:2.0;"/><text fill="#000000" font-family="Verdana" font-size="13" lengthAdjust="spacing" textLength="93" x="360.4233" y="100.0669">HTTP requests</text></g><!--SRC=[ZO-x2W8n44Nx-OhnDyHOMTY88jk7R39YCCdi9bdSiEo_AmJVZSqj3cVcSXVvJ9wmSye626m8bSvsbAV88KiAfi92LzagVNaHpTvpa5taiG1y7Q4Gg1qF1fUuiPJ8uVwu-x5MGgm_7jtrRTCSC58_KCe9tdl_qA6Mrfp0gAnQbHwRV4czaqyumGpp3G00]--></g></svg>